<svg id="isologo-sitec" xmlns="http://www.w3.org/2000/svg" xmlns:xlink="http://www.w3.org/1999/xlink" viewBox="0 0 842.55 540.76"><defs><style>.cls-1{fill:none;}.cls-2{clip-path:url(#clip-path);}.cls-3{fill:#325aa7;}.cls-4,.cls-7,.cls-8{fill:#2f58a6;}.cls-5{fill:#7fc41d;}.cls-6{fill:#81c421;}.cls-7{font-size:370px;letter-spacing:0.02em;}.cls-7,.cls-8{font-family:Poppins-Bold, Poppins;font-weight:700;}.cls-8{font-size:320.34px;letter-spacing:0.02em;}</style><clipPath id="clip-path" transform="translate(-120.2 -36.59)"><rect class="cls-1" x="107.02" y="77.91" width="879.69" height="316.89"/></clipPath></defs><g class="cls-2"><path class="cls-3" d="M505.32,77.91c5.3,3.2,11.05,5.85,15.82,9.71,12.31,10,11.12,29.8-3.63,39.87-11.5,7.85-25.88,8-37.14.06-9.43-6.67-12.8-16-10.91-27.14,1.77-10.48,9.12-16.36,18.31-20.38l4.73-2.12Z" transform="translate(-120.2 -36.59)"/><path class="cls-4" d="M573.14,223.76H526a14.93,14.93,0,0,0-.57,2.5c0,26.54-.06,53.08.06,79.61,0,8.66,2,10.73,10.73,11.18,7.14.37,14.3.08,21.81.08V352.8c-.07.06-.3.43-.53.43-16.47,0-33,.84-49.37-.24-7.58-.5-15.46-3.67-22.23-7.39-9.75-5.35-13.41-15.11-13.51-25.91-.25-28.67-.25-57.34-.35-86,0-1.77,0-3.55,0-5.95l-9.74,2.71c2.77-8.51,2.59-16.89-1.41-24.78S450.71,192.53,442.1,189c3.57-1.31,7.12-2.66,10.69-3.93,5.58-2,11.12-4.08,16.79-5.78,3.46-1,3.44-3.66,3.27-6.15-.57-8.58,3.28-15,9.53-20.25,7.49-6.29,16-8.31,25.07-4.22,9.61,4.35,16.85,10.93,16.7,22.73-.08,6.49,0,6.47,6.29,6.46q19.21,0,38.43,0c1.34,0,2.67.15,4.27.24Z" transform="translate(-120.2 -36.59)"/><path class="cls-5" d="M399.62,229.36V354.25h-52.4c-.09-1.37-.25-2.69-.25-4q0-86.25,0-172.5c0-11,4.83-19.53,14.84-23.67,17.92-7.42,35.13,2.62,37.52,21.84a49.13,49.13,0,0,1,.1,6c0,8.45,0,8.32,7.94,10.42,10.69,2.85,21.36,5.76,31.95,8.94,9.82,2.95,15.51,13.77,12.57,23.24-3,9.73-14.15,15.8-24.05,13C418.77,235,409.74,232.28,399.62,229.36Z" transform="translate(-120.2 -36.59)"/><path class="cls-6" d="M372.2,137.42c-8.42,1.09-15.8-2.73-22.35-9.16-8.86-8.7-9.83-26.84,2.22-37.5,15.17-13.43,40.19-9,48.93,9.17,9.29,19.3-8.64,38-23.71,37.49C375.92,137.38,374.55,137.42,372.2,137.42Z" transform="translate(-120.2 -36.59)"/><text class="cls-7" transform="translate(0 316.53)">S</text><text class="cls-8" transform="translate(449.6 316.79)">e</text><text class="cls-8" transform="translate(640.09 316.79)">c</text></g></svg>